<svg xmlns="http://www.w3.org/2000/svg" width="10.59" height="11.425" viewBox="0 0 10.59 11.425">
  <g id="logout" transform="translate(-17.219 0)">
    <g id="Group_344" data-name="Group 344" transform="translate(17.219)">
      <path id="Path_509" data-name="Path 509" d="M22.32,10.77h-2.98A1.469,1.469,0,0,1,17.874,9.3V2.122A1.469,1.469,0,0,1,19.341.655h3.028a.327.327,0,0,0,0-.655H19.341a2.124,2.124,0,0,0-2.122,2.122V9.3a2.124,2.124,0,0,0,2.122,2.122h2.98a.327.327,0,1,0,0-.655Z" transform="translate(-17.219)" fill="#b42846"/>
      <path id="Path_510" data-name="Path 510" d="M128.508,138.5l-2.08-2.08a.327.327,0,0,0-.463.463l1.523,1.523h-6.641a.327.327,0,0,0,0,.655h6.641l-1.523,1.523a.329.329,0,0,0,.23.56.319.319,0,0,0,.23-.1l2.08-2.08A.327.327,0,0,0,128.508,138.5Z" transform="translate(-118.014 -133.02)" fill="#b42846"/>
    </g>
  </g>
</svg>
